<svg id="visual" viewBox="0 0 960 540" width="960" height="540" xmlns="http://www.w3.org/2000/svg" xmlns:xlink="http://www.w3.org/1999/xlink" version="1.1"><path d="M0 44L40 44C80 44 160 44 240 44C320 44 400 44 480 41.3C560 38.7 640 33.3 720 27C800 20.7 880 13.3 920 9.7L960 6L960 0L920 0C880 0 800 0 720 0C640 0 560 0 480 0C400 0 320 0 240 0C160 0 80 0 40 0L0 0Z" fill="#004cbb"></path><path d="M0 82L40 81.2C80 80.3 160 78.7 240 76.8C320 75 400 73 480 76.5C560 80 640 89 720 81.8C800 74.7 880 51.3 920 39.7L960 28L960 4L920 7.7C880 11.3 800 18.7 720 25C640 31.3 560 36.7 480 39.3C400 42 320 42 240 42C160 42 80 42 40 42L0 42Z" fill="#0058d9"></path><path d="M0 120L40 118.2C80 116.3 160 112.7 240 106.3C320 100 400 91 480 90.2C560 89.3 640 96.7 720 88.5C800 80.3 880 56.7 920 44.8L960 33L960 26L920 37.7C880 49.3 800 72.7 720 79.8C640 87 560 78 480 74.5C400 71 320 73 240 74.8C160 76.7 80 78.3 40 79.2L0 80Z" fill="#0064f9"></path><path d="M0 136L40 138.7C80 141.3 160 146.7 240 144C320 141.3 400 130.7 480 124.3C560 118 640 116 720 102.5C800 89 880 64 920 51.5L960 39L960 31L920 42.8C880 54.7 800 78.3 720 86.5C640 94.7 560 87.3 480 88.2C400 89 320 98 240 104.3C160 110.7 80 114.3 40 116.2L0 118Z" fill="#3079ff"></path><path d="M0 185L40 194.8C80 204.7 160 224.3 240 218.8C320 213.3 400 182.7 480 170C560 157.3 640 162.7 720 155.5C800 148.3 880 128.7 920 118.8L960 109L960 37L920 49.5C880 62 800 87 720 100.5C640 114 560 116 480 122.3C400 128.7 320 139.3 240 142C160 144.7 80 139.3 40 136.7L0 134Z" fill="#548fff"></path><path d="M0 217L40 225.2C80 233.3 160 249.7 240 238.8C320 228 400 190 480 173.7C560 157.3 640 162.7 720 158.2C800 153.7 880 139.3 920 132.2L960 125L960 107L920 116.8C880 126.7 800 146.3 720 153.5C640 160.7 560 155.3 480 168C400 180.7 320 211.3 240 216.8C160 222.3 80 202.7 40 192.8L0 183Z" fill="#6198ff"></path><path d="M0 271L40 283.7C80 296.3 160 321.7 240 308.2C320 294.7 400 242.3 480 214.3C560 186.3 640 182.7 720 178.2C800 173.7 880 168.3 920 165.7L960 163L960 123L920 130.2C880 137.3 800 151.7 720 156.2C640 160.7 560 155.3 480 171.7C400 188 320 226 240 236.8C160 247.7 80 231.3 40 223.2L0 215Z" fill="#6198ff"></path><path d="M0 444L40 449.3C80 454.7 160 465.3 240 443.7C320 422 400 368 480 318.5C560 269 640 224 720 198.8C800 173.7 880 168.3 920 165.7L960 163L960 161L920 163.7C880 166.3 800 171.7 720 176.2C640 180.7 560 184.3 480 212.3C400 240.3 320 292.7 240 306.2C160 319.7 80 294.3 40 281.7L0 269Z" fill="#548fff"></path><path d="M0 444L40 450.3C80 456.7 160 469.3 240 447.7C320 426 400 370 480 323.2C560 276.3 640 238.7 720 218C800 197.3 880 193.7 920 191.8L960 190L960 161L920 163.7C880 166.3 800 171.7 720 196.8C640 222 560 267 480 316.5C400 366 320 420 240 441.7C160 463.3 80 452.7 40 447.3L0 442Z" fill="#3079ff"></path><path d="M0 503L40 506.7C80 510.3 160 517.7 240 501.5C320 485.3 400 445.7 480 392.5C560 339.3 640 272.7 720 241.2C800 209.7 880 213.3 920 215.2L960 217L960 188L920 189.8C880 191.7 800 195.3 720 216C640 236.7 560 274.3 480 321.2C400 368 320 424 240 445.7C160 467.3 80 454.7 40 448.3L0 442Z" fill="#0064f9"></path><path d="M0 541L40 540.2C80 539.3 160 537.7 240 536.8C320 536 400 536 480 535C560 534 640 532 720 530.2C800 528.3 880 526.7 920 525.8L960 525L960 215L920 213.2C880 211.3 800 207.7 720 239.2C640 270.7 560 337.3 480 390.5C400 443.7 320 483.3 240 499.5C160 515.7 80 508.3 40 504.7L0 501Z" fill="#0058d9"></path><path d="M0 541L40 541C80 541 160 541 240 541C320 541 400 541 480 541C560 541 640 541 720 541C800 541 880 541 920 541L960 541L960 523L920 523.8C880 524.7 800 526.3 720 528.2C640 530 560 532 480 533C400 534 320 534 240 534.8C160 535.7 80 537.3 40 538.2L0 539Z" fill="#004cbb"></path></svg>