<svg id="visual" viewBox="0 0 960 540" width="960" height="540" xmlns="http://www.w3.org/2000/svg" xmlns:xlink="http://www.w3.org/1999/xlink" version="1.1"><g stroke-width="1" stroke-linejoin="bevel"><path d="M496 260L481 248L461 292Z" fill="#346fb4" stroke="#346fb4"></path><path d="M481 248L439 291L461 292Z" fill="#4690e4" stroke="#4690e4"></path><path d="M499 361L531 311L461 292Z" fill="#4a98f0" stroke="#4a98f0"></path><path d="M461 292L531 311L496 260Z" fill="#4187d8" stroke="#4187d8"></path><path d="M481 248L409 244L439 291Z" fill="#346fb4" stroke="#346fb4"></path><path d="M496 260L517 209L481 248Z" fill="#4a98f0" stroke="#4a98f0"></path><path d="M481 248L465 184L409 244Z" fill="#67a4f2" stroke="#67a4f2"></path><path d="M525 209L517 209L496 260Z" fill="#73abf3" stroke="#73abf3"></path><path d="M409 244L398 252L439 291Z" fill="#7fb1f4" stroke="#7fb1f4"></path><path d="M561 244L525 209L496 260Z" fill="#599ef1" stroke="#599ef1"></path><path d="M398 252L413 324L439 291Z" fill="#346fb4" stroke="#346fb4"></path><path d="M439 291L413 324L461 292Z" fill="#7fb1f4" stroke="#7fb1f4"></path><path d="M528 190L506 195L517 209Z" fill="#3d7fcc" stroke="#3d7fcc"></path><path d="M517 209L506 195L481 248Z" fill="#7fb1f4" stroke="#7fb1f4"></path><path d="M506 195L465 184L481 248Z" fill="#3877c0" stroke="#3877c0"></path><path d="M409 244L384 226L398 252Z" fill="#3877c0" stroke="#3877c0"></path><path d="M531 311L561 244L496 260Z" fill="#7fb1f4" stroke="#7fb1f4"></path><path d="M528 190L507 185L506 195Z" fill="#73abf3" stroke="#73abf3"></path><path d="M506 195L507 185L465 184Z" fill="#67a4f2" stroke="#67a4f2"></path><path d="M528 190L517 209L525 209Z" fill="#346fb4" stroke="#346fb4"></path><path d="M492 366L499 361L461 292Z" fill="#3877c0" stroke="#3877c0"></path><path d="M413 324L492 366L461 292Z" fill="#8ab7f5" stroke="#8ab7f5"></path><path d="M561 244L528 190L525 209Z" fill="#346fb4" stroke="#346fb4"></path><path d="M420 158L384 226L409 244Z" fill="#3d7fcc" stroke="#3d7fcc"></path><path d="M398 252L373 264L413 324Z" fill="#599ef1" stroke="#599ef1"></path><path d="M384 226L373 264L398 252Z" fill="#599ef1" stroke="#599ef1"></path><path d="M535 381L567 322L531 311Z" fill="#4187d8" stroke="#4187d8"></path><path d="M531 311L567 322L561 244Z" fill="#73abf3" stroke="#73abf3"></path><path d="M571 322L567 322L535 381Z" fill="#346fb4" stroke="#346fb4"></path><path d="M535 381L531 311L499 361Z" fill="#3877c0" stroke="#3877c0"></path><path d="M567 322L571 322L561 244Z" fill="#67a4f2" stroke="#67a4f2"></path><path d="M359 224L363 267L373 264Z" fill="#3d7fcc" stroke="#3d7fcc"></path><path d="M373 264L363 267L413 324Z" fill="#4690e4" stroke="#4690e4"></path><path d="M386 370L416 368L413 324Z" fill="#4187d8" stroke="#4187d8"></path><path d="M413 324L416 368L492 366Z" fill="#3877c0" stroke="#3877c0"></path><path d="M480 419L500 387L492 366Z" fill="#73abf3" stroke="#73abf3"></path><path d="M492 366L500 387L499 361Z" fill="#4187d8" stroke="#4187d8"></path><path d="M372 170L359 224L384 226Z" fill="#4a98f0" stroke="#4a98f0"></path><path d="M384 226L359 224L373 264Z" fill="#3d7fcc" stroke="#3d7fcc"></path><path d="M500 387L535 381L499 361Z" fill="#4187d8" stroke="#4187d8"></path><path d="M494 146L420 158L465 184Z" fill="#8ab7f5" stroke="#8ab7f5"></path><path d="M465 184L420 158L409 244Z" fill="#4690e4" stroke="#4690e4"></path><path d="M494 146L465 184L507 185Z" fill="#4a98f0" stroke="#4a98f0"></path><path d="M517 128L494 146L507 185Z" fill="#346fb4" stroke="#346fb4"></path><path d="M335 333L386 370L413 324Z" fill="#3877c0" stroke="#3877c0"></path><path d="M416 368L480 419L492 366Z" fill="#4187d8" stroke="#4187d8"></path><path d="M613 340L615 262L571 322Z" fill="#3877c0" stroke="#3877c0"></path><path d="M571 322L615 262L561 244Z" fill="#4690e4" stroke="#4690e4"></path><path d="M604 139L572 127L528 190Z" fill="#3d7fcc" stroke="#3d7fcc"></path><path d="M528 190L517 128L507 185Z" fill="#4187d8" stroke="#4187d8"></path><path d="M494 146L412 142L420 158Z" fill="#4690e4" stroke="#4690e4"></path><path d="M420 158L372 170L384 226Z" fill="#7fb1f4" stroke="#7fb1f4"></path><path d="M412 142L372 170L420 158Z" fill="#73abf3" stroke="#73abf3"></path><path d="M433 448L480 419L416 368Z" fill="#7fb1f4" stroke="#7fb1f4"></path><path d="M500 387L550 437L535 381Z" fill="#599ef1" stroke="#599ef1"></path><path d="M359 224L328 244L363 267Z" fill="#7fb1f4" stroke="#7fb1f4"></path><path d="M363 267L335 333L413 324Z" fill="#346fb4" stroke="#346fb4"></path><path d="M313 241L307 210L302 226Z" fill="#73abf3" stroke="#73abf3"></path><path d="M518 127L517 128L572 127Z" fill="#4a98f0" stroke="#4a98f0"></path><path d="M494 146L404 103L412 142Z" fill="#4187d8" stroke="#4187d8"></path><path d="M531 110L518 127L572 127Z" fill="#67a4f2" stroke="#67a4f2"></path><path d="M414 65L404 103L494 146Z" fill="#599ef1" stroke="#599ef1"></path><path d="M335 333L379 390L386 370Z" fill="#67a4f2" stroke="#67a4f2"></path><path d="M386 370L379 390L416 368Z" fill="#7fb1f4" stroke="#7fb1f4"></path><path d="M290 273L335 333L363 267Z" fill="#4a98f0" stroke="#4a98f0"></path><path d="M632 382L613 340L535 381Z" fill="#8ab7f5" stroke="#8ab7f5"></path><path d="M535 381L613 340L571 322Z" fill="#599ef1" stroke="#599ef1"></path><path d="M313 241L328 244L307 210Z" fill="#67a4f2" stroke="#67a4f2"></path><path d="M328 244L290 273L363 267Z" fill="#599ef1" stroke="#599ef1"></path><path d="M433 448L482 440L480 419Z" fill="#599ef1" stroke="#599ef1"></path><path d="M480 419L550 437L500 387Z" fill="#8ab7f5" stroke="#8ab7f5"></path><path d="M572 127L517 128L528 190Z" fill="#599ef1" stroke="#599ef1"></path><path d="M414 65L494 146L517 128Z" fill="#3877c0" stroke="#3877c0"></path><path d="M306 369L373 411L379 390Z" fill="#73abf3" stroke="#73abf3"></path><path d="M379 390L433 448L416 368Z" fill="#7fb1f4" stroke="#7fb1f4"></path><path d="M604 139L528 190L561 244Z" fill="#346fb4" stroke="#346fb4"></path><path d="M307 210L328 244L359 224Z" fill="#3d7fcc" stroke="#3d7fcc"></path><path d="M313 241L290 273L328 244Z" fill="#599ef1" stroke="#599ef1"></path><path d="M313 179L359 224L372 170Z" fill="#73abf3" stroke="#73abf3"></path><path d="M313 179L307 210L359 224Z" fill="#4a98f0" stroke="#4a98f0"></path><path d="M373 411L433 448L379 390Z" fill="#7fb1f4" stroke="#7fb1f4"></path><path d="M559 493L550 437L482 440Z" fill="#4187d8" stroke="#4187d8"></path><path d="M482 440L550 437L480 419Z" fill="#3877c0" stroke="#3877c0"></path><path d="M414 65L517 128L518 127Z" fill="#599ef1" stroke="#599ef1"></path><path d="M412 142L404 103L372 170Z" fill="#8ab7f5" stroke="#8ab7f5"></path><path d="M287 269L290 273L313 241Z" fill="#7fb1f4" stroke="#7fb1f4"></path><path d="M335 333L306 369L379 390Z" fill="#346fb4" stroke="#346fb4"></path><path d="M615 262L604 139L561 244Z" fill="#599ef1" stroke="#599ef1"></path><path d="M572 127L562 61L531 110Z" fill="#599ef1" stroke="#599ef1"></path><path d="M303 128L313 179L372 170Z" fill="#4187d8" stroke="#4187d8"></path><path d="M271 267L287 269L259 244Z" fill="#73abf3" stroke="#73abf3"></path><path d="M302 226L287 269L313 241Z" fill="#4a98f0" stroke="#4a98f0"></path><path d="M273 269L287 269L271 267Z" fill="#3877c0" stroke="#3877c0"></path><path d="M290 273L306 369L335 333Z" fill="#67a4f2" stroke="#67a4f2"></path><path d="M550 437L632 382L535 381Z" fill="#4187d8" stroke="#4187d8"></path><path d="M613 340L669 300L615 262Z" fill="#599ef1" stroke="#599ef1"></path><path d="M615 262L675 242L604 139Z" fill="#4187d8" stroke="#4187d8"></path><path d="M275 374L306 369L290 273Z" fill="#67a4f2" stroke="#67a4f2"></path><path d="M665 343L669 300L613 340Z" fill="#73abf3" stroke="#73abf3"></path><path d="M287 269L302 226L259 244Z" fill="#67a4f2" stroke="#67a4f2"></path><path d="M287 269L273 269L290 273Z" fill="#8ab7f5" stroke="#8ab7f5"></path><path d="M669 300L675 242L615 262Z" fill="#8ab7f5" stroke="#8ab7f5"></path><path d="M286 178L302 226L307 210Z" fill="#3877c0" stroke="#3877c0"></path><path d="M275 374L288 386L306 369Z" fill="#8ab7f5" stroke="#8ab7f5"></path><path d="M632 382L665 343L613 340Z" fill="#4a98f0" stroke="#4a98f0"></path><path d="M669 300L697 250L675 242Z" fill="#3d7fcc" stroke="#3d7fcc"></path><path d="M283 152L286 178L313 179Z" fill="#3d7fcc" stroke="#3d7fcc"></path><path d="M313 179L286 178L307 210Z" fill="#4187d8" stroke="#4187d8"></path><path d="M514 35L414 65L518 127Z" fill="#599ef1" stroke="#599ef1"></path><path d="M404 103L303 128L372 170Z" fill="#3877c0" stroke="#3877c0"></path><path d="M286 178L259 244L302 226Z" fill="#346fb4" stroke="#346fb4"></path><path d="M275 374L290 273L273 269Z" fill="#67a4f2" stroke="#67a4f2"></path><path d="M680 376L680 343L665 343Z" fill="#4690e4" stroke="#4690e4"></path><path d="M665 343L680 343L669 300Z" fill="#4187d8" stroke="#4187d8"></path><path d="M275 374L273 269L223 358Z" fill="#599ef1" stroke="#599ef1"></path><path d="M306 369L288 386L373 411Z" fill="#8ab7f5" stroke="#8ab7f5"></path><path d="M373 411L360 465L433 448Z" fill="#8ab7f5" stroke="#8ab7f5"></path><path d="M550 437L650 410L632 382Z" fill="#4a98f0" stroke="#4a98f0"></path><path d="M632 382L680 376L665 343Z" fill="#4a98f0" stroke="#4a98f0"></path><path d="M707 254L697 250L669 300Z" fill="#4690e4" stroke="#4690e4"></path><path d="M675 242L700 183L604 139Z" fill="#346fb4" stroke="#346fb4"></path><path d="M333 59L303 128L404 103Z" fill="#4690e4" stroke="#4690e4"></path><path d="M286 178L228 230L259 244Z" fill="#73abf3" stroke="#73abf3"></path><path d="M216 280L273 269L271 267Z" fill="#4690e4" stroke="#4690e4"></path><path d="M334 459L373 411L288 386Z" fill="#4a98f0" stroke="#4a98f0"></path><path d="M334 459L360 465L373 411Z" fill="#7fb1f4" stroke="#7fb1f4"></path><path d="M514 521L559 493L482 440Z" fill="#4690e4" stroke="#4690e4"></path><path d="M303 128L283 152L313 179Z" fill="#3d7fcc" stroke="#3d7fcc"></path><path d="M604 139L562 61L572 127Z" fill="#7fb1f4" stroke="#7fb1f4"></path><path d="M531 110L514 35L518 127Z" fill="#3d7fcc" stroke="#3d7fcc"></path><path d="M606 27L562 61L604 139Z" fill="#4690e4" stroke="#4690e4"></path><path d="M650 410L680 376L632 382Z" fill="#4a98f0" stroke="#4a98f0"></path><path d="M734 289L707 254L669 300Z" fill="#599ef1" stroke="#599ef1"></path><path d="M223 358L277 391L275 374Z" fill="#3877c0" stroke="#3877c0"></path><path d="M275 374L277 391L288 386Z" fill="#3d7fcc" stroke="#3d7fcc"></path><path d="M702 331L669 300L680 343Z" fill="#4690e4" stroke="#4690e4"></path><path d="M718 234L700 183L675 242Z" fill="#3877c0" stroke="#3877c0"></path><path d="M277 391L334 459L288 386Z" fill="#4690e4" stroke="#4690e4"></path><path d="M697 384L702 331L680 343Z" fill="#8ab7f5" stroke="#8ab7f5"></path><path d="M514 521L482 440L480 540Z" fill="#73abf3" stroke="#73abf3"></path><path d="M550 437L616 474L650 410Z" fill="#599ef1" stroke="#599ef1"></path><path d="M562 61L514 35L531 110Z" fill="#3877c0" stroke="#3877c0"></path><path d="M718 234L675 242L697 250Z" fill="#3d7fcc" stroke="#3d7fcc"></path><path d="M258 123L266 141L303 128Z" fill="#599ef1" stroke="#599ef1"></path><path d="M303 128L266 141L283 152Z" fill="#73abf3" stroke="#73abf3"></path><path d="M283 152L245 153L286 178Z" fill="#599ef1" stroke="#599ef1"></path><path d="M707 254L718 234L697 250Z" fill="#346fb4" stroke="#346fb4"></path><path d="M740 243L718 234L707 254Z" fill="#4690e4" stroke="#4690e4"></path><path d="M559 493L616 474L550 437Z" fill="#67a4f2" stroke="#67a4f2"></path><path d="M650 410L697 384L680 376Z" fill="#4690e4" stroke="#4690e4"></path><path d="M606 27L546 34L562 61Z" fill="#73abf3" stroke="#73abf3"></path><path d="M562 61L546 34L514 35Z" fill="#4187d8" stroke="#4187d8"></path><path d="M680 376L697 384L680 343Z" fill="#4690e4" stroke="#4690e4"></path><path d="M702 331L734 289L669 300Z" fill="#599ef1" stroke="#599ef1"></path><path d="M708 403L697 384L650 410Z" fill="#4187d8" stroke="#4187d8"></path><path d="M245 153L228 230L286 178Z" fill="#7fb1f4" stroke="#7fb1f4"></path><path d="M259 244L216 280L271 267Z" fill="#8ab7f5" stroke="#8ab7f5"></path><path d="M480 540L433 448L435 540Z" fill="#3d7fcc" stroke="#3d7fcc"></path><path d="M480 540L482 440L433 448Z" fill="#599ef1" stroke="#599ef1"></path><path d="M559 493L631 540L616 474Z" fill="#3d7fcc" stroke="#3d7fcc"></path><path d="M634 540L634 469L616 474Z" fill="#3877c0" stroke="#3877c0"></path><path d="M616 474L634 469L650 410Z" fill="#4a98f0" stroke="#4a98f0"></path><path d="M380 0L333 59L414 65Z" fill="#3877c0" stroke="#3877c0"></path><path d="M414 65L333 59L404 103Z" fill="#599ef1" stroke="#599ef1"></path><path d="M258 123L245 153L266 141Z" fill="#4690e4" stroke="#4690e4"></path><path d="M266 141L245 153L283 152Z" fill="#73abf3" stroke="#73abf3"></path><path d="M191 236L216 280L228 230Z" fill="#67a4f2" stroke="#67a4f2"></path><path d="M228 230L216 280L259 244Z" fill="#4690e4" stroke="#4690e4"></path><path d="M634 469L669 444L650 410Z" fill="#8ab7f5" stroke="#8ab7f5"></path><path d="M768 307L734 289L702 331Z" fill="#4a98f0" stroke="#4a98f0"></path><path d="M735 540L671 443L669 444Z" fill="#73abf3" stroke="#73abf3"></path><path d="M669 444L671 443L650 410Z" fill="#346fb4" stroke="#346fb4"></path><path d="M264 81L258 123L303 128Z" fill="#4187d8" stroke="#4187d8"></path><path d="M458 -3L414 65L514 35Z" fill="#7fb1f4" stroke="#7fb1f4"></path><path d="M458 -3L418 12L414 65Z" fill="#3877c0" stroke="#3877c0"></path><path d="M216 280L223 358L273 269Z" fill="#73abf3" stroke="#73abf3"></path><path d="M285 484L343 507L334 459Z" fill="#8ab7f5" stroke="#8ab7f5"></path><path d="M734 289L740 243L707 254Z" fill="#7fb1f4" stroke="#7fb1f4"></path><path d="M718 234L764 188L700 183Z" fill="#599ef1" stroke="#599ef1"></path><path d="M671 443L708 403L650 410Z" fill="#346fb4" stroke="#346fb4"></path><path d="M772 369L768 307L702 331Z" fill="#4690e4" stroke="#4690e4"></path><path d="M435 540L433 448L360 465Z" fill="#4a98f0" stroke="#4a98f0"></path><path d="M514 521L535 540L559 493Z" fill="#3d7fcc" stroke="#3d7fcc"></path><path d="M480 540L484 540L514 521Z" fill="#4a98f0" stroke="#4a98f0"></path><path d="M484 540L495 540L514 521Z" fill="#346fb4" stroke="#346fb4"></path><path d="M284 474L334 459L277 391Z" fill="#67a4f2" stroke="#67a4f2"></path><path d="M334 459L343 507L360 465Z" fill="#4690e4" stroke="#4690e4"></path><path d="M343 507L435 540L360 465Z" fill="#4a98f0" stroke="#4a98f0"></path><path d="M550 -29L458 -3L514 35Z" fill="#4a98f0" stroke="#4a98f0"></path><path d="M510 553L535 540L514 521Z" fill="#4187d8" stroke="#4187d8"></path><path d="M634 469L735 540L669 444Z" fill="#4a98f0" stroke="#4a98f0"></path><path d="M458 -3L428 0L418 12Z" fill="#346fb4" stroke="#346fb4"></path><path d="M418 12L381 0L414 65Z" fill="#7fb1f4" stroke="#7fb1f4"></path><path d="M287 21L288 68L333 59Z" fill="#3d7fcc" stroke="#3d7fcc"></path><path d="M333 59L288 68L303 128Z" fill="#4690e4" stroke="#4690e4"></path><path d="M458 -3L417 0L428 0Z" fill="#4a98f0" stroke="#4a98f0"></path><path d="M428 0L417 0L418 12Z" fill="#4187d8" stroke="#4187d8"></path><path d="M676 73L606 27L604 139Z" fill="#7fb1f4" stroke="#7fb1f4"></path><path d="M546 34L565 0L514 35Z" fill="#3d7fcc" stroke="#3d7fcc"></path><path d="M676 73L604 139L706 91Z" fill="#4a98f0" stroke="#4a98f0"></path><path d="M243 438L284 474L277 391Z" fill="#599ef1" stroke="#599ef1"></path><path d="M343 507L440 549L435 540Z" fill="#4187d8" stroke="#4187d8"></path><path d="M435 540L440 549L480 540Z" fill="#8ab7f5" stroke="#8ab7f5"></path><path d="M474 556L495 540L484 540Z" fill="#73abf3" stroke="#73abf3"></path><path d="M474 556L510 553L495 540Z" fill="#67a4f2" stroke="#67a4f2"></path><path d="M495 540L510 553L514 521Z" fill="#4690e4" stroke="#4690e4"></path><path d="M706 91L604 139L700 183Z" fill="#599ef1" stroke="#599ef1"></path><path d="M474 556L484 540L480 540Z" fill="#4187d8" stroke="#4187d8"></path><path d="M288 68L264 81L303 128Z" fill="#8ab7f5" stroke="#8ab7f5"></path><path d="M258 123L187 119L245 153Z" fill="#346fb4" stroke="#346fb4"></path><path d="M440 549L474 556L480 540Z" fill="#3d7fcc" stroke="#3d7fcc"></path><path d="M284 474L285 484L334 459Z" fill="#4187d8" stroke="#4187d8"></path><path d="M343 507L287 540L440 549Z" fill="#3d7fcc" stroke="#3d7fcc"></path><path d="M273 489L285 484L284 474Z" fill="#4690e4" stroke="#4690e4"></path><path d="M236 437L243 438L277 391Z" fill="#4187d8" stroke="#4187d8"></path><path d="M165 226L191 236L245 153Z" fill="#8ab7f5" stroke="#8ab7f5"></path><path d="M245 153L191 236L228 230Z" fill="#4a98f0" stroke="#4a98f0"></path><path d="M216 280L121 299L223 358Z" fill="#7fb1f4" stroke="#7fb1f4"></path><path d="M213 428L236 437L277 391Z" fill="#346fb4" stroke="#346fb4"></path><path d="M576 0L546 34L606 27Z" fill="#599ef1" stroke="#599ef1"></path><path d="M576 0L565 0L546 34Z" fill="#8ab7f5" stroke="#8ab7f5"></path><path d="M550 -29L381 0L417 0Z" fill="#346fb4" stroke="#346fb4"></path><path d="M417 0L381 0L418 12Z" fill="#3877c0" stroke="#3877c0"></path><path d="M288 68L238 71L264 81Z" fill="#4a98f0" stroke="#4a98f0"></path><path d="M550 -29L380 0L381 0Z" fill="#8ab7f5" stroke="#8ab7f5"></path><path d="M381 0L380 0L414 65Z" fill="#3d7fcc" stroke="#3d7fcc"></path><path d="M614 0L576 0L606 27Z" fill="#4187d8" stroke="#4187d8"></path><path d="M565 0L550 -29L514 35Z" fill="#346fb4" stroke="#346fb4"></path><path d="M213 428L277 391L223 358Z" fill="#4690e4" stroke="#4690e4"></path><path d="M249 466L273 489L284 474Z" fill="#8ab7f5" stroke="#8ab7f5"></path><path d="M734 109L706 91L700 183Z" fill="#8ab7f5" stroke="#8ab7f5"></path><path d="M630 -2L614 0L606 27Z" fill="#4187d8" stroke="#4187d8"></path><path d="M768 307L766 226L740 243Z" fill="#7fb1f4" stroke="#7fb1f4"></path><path d="M740 243L766 226L718 234Z" fill="#67a4f2" stroke="#67a4f2"></path><path d="M768 307L740 243L734 289Z" fill="#73abf3" stroke="#73abf3"></path><path d="M772 369L702 331L697 384Z" fill="#346fb4" stroke="#346fb4"></path><path d="M249 466L284 474L243 438Z" fill="#4a98f0" stroke="#4a98f0"></path><path d="M285 484L287 540L343 507Z" fill="#7fb1f4" stroke="#7fb1f4"></path><path d="M236 437L249 466L243 438Z" fill="#4a98f0" stroke="#4a98f0"></path><path d="M766 226L764 188L718 234Z" fill="#67a4f2" stroke="#67a4f2"></path><path d="M154 433L213 428L223 358Z" fill="#3877c0" stroke="#3877c0"></path><path d="M236 437L213 428L249 466Z" fill="#599ef1" stroke="#599ef1"></path><path d="M630 -2L606 27L689 38Z" fill="#8ab7f5" stroke="#8ab7f5"></path><path d="M576 0L550 -29L565 0Z" fill="#4187d8" stroke="#4187d8"></path><path d="M742 115L734 109L700 183Z" fill="#3d7fcc" stroke="#3d7fcc"></path><path d="M689 38L606 27L676 73Z" fill="#3d7fcc" stroke="#3d7fcc"></path><path d="M611 -18L550 -29L576 0Z" fill="#7fb1f4" stroke="#7fb1f4"></path><path d="M458 -3L550 -29L417 0Z" fill="#346fb4" stroke="#346fb4"></path><path d="M764 188L742 115L700 183Z" fill="#7fb1f4" stroke="#7fb1f4"></path><path d="M689 38L676 73L714 47Z" fill="#73abf3" stroke="#73abf3"></path><path d="M287 21L238 71L288 68Z" fill="#3877c0" stroke="#3877c0"></path><path d="M264 81L238 71L258 123Z" fill="#4a98f0" stroke="#4a98f0"></path><path d="M550 -29L324 0L380 0Z" fill="#8ab7f5" stroke="#8ab7f5"></path><path d="M380 0L324 0L333 59Z" fill="#4187d8" stroke="#4187d8"></path><path d="M510 553L631 540L535 540Z" fill="#346fb4" stroke="#346fb4"></path><path d="M535 540L631 540L559 493Z" fill="#73abf3" stroke="#73abf3"></path><path d="M780 399L772 369L708 403Z" fill="#4a98f0" stroke="#4a98f0"></path><path d="M708 403L772 369L697 384Z" fill="#3d7fcc" stroke="#3d7fcc"></path><path d="M550 -29L321 0L324 0Z" fill="#73abf3" stroke="#73abf3"></path><path d="M324 0L321 0L333 59Z" fill="#4a98f0" stroke="#4a98f0"></path><path d="M682 566L634 540L631 540Z" fill="#8ab7f5" stroke="#8ab7f5"></path><path d="M631 540L634 540L616 474Z" fill="#346fb4" stroke="#346fb4"></path><path d="M187 119L165 226L245 153Z" fill="#7fb1f4" stroke="#7fb1f4"></path><path d="M191 236L133 270L216 280Z" fill="#73abf3" stroke="#73abf3"></path><path d="M321 0L287 21L333 59Z" fill="#599ef1" stroke="#599ef1"></path><path d="M780 399L708 403L773 439Z" fill="#3d7fcc" stroke="#3d7fcc"></path><path d="M817 257L784 220L766 226Z" fill="#599ef1" stroke="#599ef1"></path><path d="M766 226L784 220L764 188Z" fill="#7fb1f4" stroke="#7fb1f4"></path><path d="M764 188L783 128L742 115Z" fill="#3d7fcc" stroke="#3d7fcc"></path><path d="M817 257L766 226L768 307Z" fill="#4187d8" stroke="#4187d8"></path><path d="M614 0L611 -18L576 0Z" fill="#67a4f2" stroke="#67a4f2"></path><path d="M676 73L706 91L714 47Z" fill="#4187d8" stroke="#4187d8"></path><path d="M714 47L706 91L748 51Z" fill="#346fb4" stroke="#346fb4"></path><path d="M707 0L611 -18L630 -2Z" fill="#599ef1" stroke="#599ef1"></path><path d="M630 -2L611 -18L614 0Z" fill="#4187d8" stroke="#4187d8"></path><path d="M183 50L187 119L238 71Z" fill="#8ab7f5" stroke="#8ab7f5"></path><path d="M238 71L187 119L258 123Z" fill="#346fb4" stroke="#346fb4"></path><path d="M265 540L287 540L273 489Z" fill="#3877c0" stroke="#3877c0"></path><path d="M273 489L287 540L285 484Z" fill="#73abf3" stroke="#73abf3"></path><path d="M440 549L287 540L474 556Z" fill="#7fb1f4" stroke="#7fb1f4"></path><path d="M265 540L273 489L239 526Z" fill="#3d7fcc" stroke="#3d7fcc"></path><path d="M748 51L706 91L734 109Z" fill="#4187d8" stroke="#4187d8"></path><path d="M689 38L707 0L630 -2Z" fill="#599ef1" stroke="#599ef1"></path><path d="M772 369L801 325L768 307Z" fill="#599ef1" stroke="#599ef1"></path><path d="M773 439L708 403L671 443Z" fill="#8ab7f5" stroke="#8ab7f5"></path><path d="M772 369L814 346L801 325Z" fill="#3d7fcc" stroke="#3d7fcc"></path><path d="M780 399L784 389L772 369Z" fill="#8ab7f5" stroke="#8ab7f5"></path><path d="M829 186L764 188L784 220Z" fill="#346fb4" stroke="#346fb4"></path><path d="M825 169L783 128L764 188Z" fill="#67a4f2" stroke="#67a4f2"></path><path d="M742 115L748 51L734 109Z" fill="#4690e4" stroke="#4690e4"></path><path d="M239 526L273 489L249 466Z" fill="#3877c0" stroke="#3877c0"></path><path d="M287 540L202 547L474 556Z" fill="#8ab7f5" stroke="#8ab7f5"></path><path d="M107 187L133 270L165 226Z" fill="#4a98f0" stroke="#4a98f0"></path><path d="M165 226L133 270L191 236Z" fill="#73abf3" stroke="#73abf3"></path><path d="M164 485L239 526L249 466Z" fill="#3d7fcc" stroke="#3d7fcc"></path><path d="M784 473L773 439L671 443Z" fill="#3d7fcc" stroke="#3d7fcc"></path><path d="M780 399L812 378L784 389Z" fill="#4a98f0" stroke="#4a98f0"></path><path d="M812 378L814 346L772 369Z" fill="#4690e4" stroke="#4690e4"></path><path d="M835 282L817 257L768 307Z" fill="#67a4f2" stroke="#67a4f2"></path><path d="M817 257L817 227L784 220Z" fill="#3877c0" stroke="#3877c0"></path><path d="M321 0L259 0L287 21Z" fill="#4a98f0" stroke="#4a98f0"></path><path d="M287 21L259 0L238 71Z" fill="#346fb4" stroke="#346fb4"></path><path d="M550 -29L259 0L321 0Z" fill="#4187d8" stroke="#4187d8"></path><path d="M164 485L249 466L213 428Z" fill="#3877c0" stroke="#3877c0"></path><path d="M812 378L772 369L784 389Z" fill="#599ef1" stroke="#599ef1"></path><path d="M835 282L835 279L817 257Z" fill="#4690e4" stroke="#4690e4"></path><path d="M787 56L748 51L742 115Z" fill="#4690e4" stroke="#4690e4"></path><path d="M714 47L707 0L689 38Z" fill="#73abf3" stroke="#73abf3"></path><path d="M773 439L812 378L780 399Z" fill="#67a4f2" stroke="#67a4f2"></path><path d="M35 315L121 299L31 274Z" fill="#73abf3" stroke="#73abf3"></path><path d="M133 270L121 299L216 280Z" fill="#7fb1f4" stroke="#7fb1f4"></path><path d="M748 51L707 0L714 47Z" fill="#599ef1" stroke="#599ef1"></path><path d="M121 364L154 433L223 358Z" fill="#3d7fcc" stroke="#3d7fcc"></path><path d="M634 540L682 566L634 469Z" fill="#346fb4" stroke="#346fb4"></path><path d="M510 553L682 566L631 540Z" fill="#3d7fcc" stroke="#3d7fcc"></path><path d="M474 556L682 566L510 553Z" fill="#4690e4" stroke="#4690e4"></path><path d="M835 282L768 307L801 325Z" fill="#67a4f2" stroke="#67a4f2"></path><path d="M817 257L847 273L817 227Z" fill="#3d7fcc" stroke="#3d7fcc"></path><path d="M817 227L829 186L784 220Z" fill="#67a4f2" stroke="#67a4f2"></path><path d="M835 282L801 325L814 346Z" fill="#3877c0" stroke="#3877c0"></path><path d="M847 273L835 282L869 272Z" fill="#8ab7f5" stroke="#8ab7f5"></path><path d="M259 0L203 28L238 71Z" fill="#8ab7f5" stroke="#8ab7f5"></path><path d="M187 119L107 187L165 226Z" fill="#599ef1" stroke="#599ef1"></path><path d="M855 173L829 186L867 185Z" fill="#4690e4" stroke="#4690e4"></path><path d="M783 128L787 56L742 115Z" fill="#4187d8" stroke="#4187d8"></path><path d="M829 186L825 169L764 188Z" fill="#346fb4" stroke="#346fb4"></path><path d="M121 299L121 364L223 358Z" fill="#67a4f2" stroke="#67a4f2"></path><path d="M203 28L183 50L238 71Z" fill="#599ef1" stroke="#599ef1"></path><path d="M735 540L784 473L671 443Z" fill="#4187d8" stroke="#4187d8"></path><path d="M773 439L784 473L812 378Z" fill="#4a98f0" stroke="#4a98f0"></path><path d="M835 282L847 273L835 279Z" fill="#8ab7f5" stroke="#8ab7f5"></path><path d="M835 279L847 273L817 257Z" fill="#7fb1f4" stroke="#7fb1f4"></path><path d="M869 272L835 282L814 346Z" fill="#599ef1" stroke="#599ef1"></path><path d="M869 272L814 346L900 378Z" fill="#7fb1f4" stroke="#7fb1f4"></path><path d="M682 566L735 540L634 469Z" fill="#3d7fcc" stroke="#3d7fcc"></path><path d="M131 421L147 453L154 433Z" fill="#67a4f2" stroke="#67a4f2"></path><path d="M154 433L164 485L213 428Z" fill="#346fb4" stroke="#346fb4"></path><path d="M121 399L131 421L154 433Z" fill="#3877c0" stroke="#3877c0"></path><path d="M121 364L121 399L154 433Z" fill="#73abf3" stroke="#73abf3"></path><path d="M147 453L164 485L154 433Z" fill="#67a4f2" stroke="#67a4f2"></path><path d="M682 566L733 546L735 540Z" fill="#4690e4" stroke="#4690e4"></path><path d="M735 540L746 540L784 473Z" fill="#4690e4" stroke="#4690e4"></path><path d="M100 105L107 187L187 119Z" fill="#7fb1f4" stroke="#7fb1f4"></path><path d="M121 299L96 368L121 364Z" fill="#599ef1" stroke="#599ef1"></path><path d="M121 364L96 368L121 399Z" fill="#599ef1" stroke="#599ef1"></path><path d="M833 131L787 56L783 128Z" fill="#8ab7f5" stroke="#8ab7f5"></path><path d="M748 51L771 0L707 0Z" fill="#3877c0" stroke="#3877c0"></path><path d="M733 546L746 540L735 540Z" fill="#3d7fcc" stroke="#3d7fcc"></path><path d="M855 173L833 131L825 169Z" fill="#7fb1f4" stroke="#7fb1f4"></path><path d="M825 169L833 131L783 128Z" fill="#7fb1f4" stroke="#7fb1f4"></path><path d="M855 173L825 169L829 186Z" fill="#3877c0" stroke="#3877c0"></path><path d="M259 0L200 0L203 28Z" fill="#599ef1" stroke="#599ef1"></path><path d="M203 28L154 35L183 50Z" fill="#3d7fcc" stroke="#3d7fcc"></path><path d="M183 50L100 105L187 119Z" fill="#73abf3" stroke="#73abf3"></path><path d="M550 -29L200 0L259 0Z" fill="#4187d8" stroke="#4187d8"></path><path d="M164 485L202 547L239 526Z" fill="#4690e4" stroke="#4690e4"></path><path d="M239 526L202 547L265 540Z" fill="#7fb1f4" stroke="#7fb1f4"></path><path d="M265 540L202 547L287 540Z" fill="#67a4f2" stroke="#67a4f2"></path><path d="M474 556L202 547L682 566Z" fill="#4690e4" stroke="#4690e4"></path><path d="M35 315L96 368L121 299Z" fill="#67a4f2" stroke="#67a4f2"></path><path d="M95 540L147 453L31 491Z" fill="#4690e4" stroke="#4690e4"></path><path d="M102 540L164 485L147 453Z" fill="#3877c0" stroke="#3877c0"></path><path d="M141 540L177 540L164 485Z" fill="#3d7fcc" stroke="#3d7fcc"></path><path d="M682 566L752 547L733 546Z" fill="#346fb4" stroke="#346fb4"></path><path d="M733 546L752 547L746 540Z" fill="#8ab7f5" stroke="#8ab7f5"></path><path d="M746 540L752 547L784 473Z" fill="#4187d8" stroke="#4187d8"></path><path d="M867 185L829 186L817 227Z" fill="#4187d8" stroke="#4187d8"></path><path d="M900 378L814 346L812 378Z" fill="#7fb1f4" stroke="#7fb1f4"></path><path d="M847 273L869 272L817 227Z" fill="#67a4f2" stroke="#67a4f2"></path><path d="M150 19L154 35L203 28Z" fill="#3d7fcc" stroke="#3d7fcc"></path><path d="M164 485L177 540L202 547Z" fill="#4187d8" stroke="#4187d8"></path><path d="M141 540L164 485L102 540Z" fill="#8ab7f5" stroke="#8ab7f5"></path><path d="M869 272L867 185L817 227Z" fill="#4a98f0" stroke="#4a98f0"></path><path d="M869 89L866 89L833 131Z" fill="#4187d8" stroke="#4187d8"></path><path d="M839 -32L771 0L787 56Z" fill="#3877c0" stroke="#3877c0"></path><path d="M866 89L787 56L833 131Z" fill="#8ab7f5" stroke="#8ab7f5"></path><path d="M787 56L771 0L748 51Z" fill="#599ef1" stroke="#599ef1"></path><path d="M707 0L839 -32L611 -18Z" fill="#3877c0" stroke="#3877c0"></path><path d="M611 -18L839 -32L550 -29Z" fill="#4690e4" stroke="#4690e4"></path><path d="M154 35L100 105L183 50Z" fill="#73abf3" stroke="#73abf3"></path><path d="M31 274L121 299L133 270Z" fill="#4187d8" stroke="#4187d8"></path><path d="M200 0L150 19L203 28Z" fill="#3d7fcc" stroke="#3d7fcc"></path><path d="M63 16L52 86L100 105Z" fill="#346fb4" stroke="#346fb4"></path><path d="M200 0L153 0L150 19Z" fill="#4690e4" stroke="#4690e4"></path><path d="M96 0L100 105L154 35Z" fill="#4690e4" stroke="#4690e4"></path><path d="M550 -29L153 0L200 0Z" fill="#8ab7f5" stroke="#8ab7f5"></path><path d="M102 540L147 453L95 540Z" fill="#7fb1f4" stroke="#7fb1f4"></path><path d="M177 540L141 540L202 547Z" fill="#8ab7f5" stroke="#8ab7f5"></path><path d="M869 272L893 179L867 185Z" fill="#67a4f2" stroke="#67a4f2"></path><path d="M867 185L893 179L855 173Z" fill="#346fb4" stroke="#346fb4"></path><path d="M869 89L833 131L908 133Z" fill="#73abf3" stroke="#73abf3"></path><path d="M908 133L833 131L855 173Z" fill="#4a98f0" stroke="#4a98f0"></path><path d="M885 0L839 -32L787 56Z" fill="#4a98f0" stroke="#4a98f0"></path><path d="M752 547L820 540L784 473Z" fill="#73abf3" stroke="#73abf3"></path><path d="M784 473L843 508L812 378Z" fill="#7fb1f4" stroke="#7fb1f4"></path><path d="M869 272L960 225L893 179Z" fill="#8ab7f5" stroke="#8ab7f5"></path><path d="M830 549L820 540L752 547Z" fill="#8ab7f5" stroke="#8ab7f5"></path><path d="M820 540L843 508L784 473Z" fill="#4690e4" stroke="#4690e4"></path><path d="M843 508L900 378L812 378Z" fill="#7fb1f4" stroke="#7fb1f4"></path><path d="M31 274L133 270L107 187Z" fill="#599ef1" stroke="#599ef1"></path><path d="M147 453L131 421L31 491Z" fill="#4187d8" stroke="#4187d8"></path><path d="M20 199L31 274L107 187Z" fill="#4690e4" stroke="#4690e4"></path><path d="M820 540L848 528L843 508Z" fill="#73abf3" stroke="#73abf3"></path><path d="M843 508L960 447L900 378Z" fill="#3d7fcc" stroke="#3d7fcc"></path><path d="M682 566L830 549L752 547Z" fill="#73abf3" stroke="#73abf3"></path><path d="M830 549L839 540L820 540Z" fill="#4187d8" stroke="#4187d8"></path><path d="M839 540L848 528L820 540Z" fill="#4187d8" stroke="#4187d8"></path><path d="M991 157L909 139L893 179Z" fill="#346fb4" stroke="#346fb4"></path><path d="M893 179L909 139L855 173Z" fill="#4a98f0" stroke="#4a98f0"></path><path d="M909 139L908 133L855 173Z" fill="#73abf3" stroke="#73abf3"></path><path d="M131 421L121 399L25 427Z" fill="#4a98f0" stroke="#4a98f0"></path><path d="M141 540L102 540L202 547Z" fill="#8ab7f5" stroke="#8ab7f5"></path><path d="M0 140L107 187L100 105Z" fill="#599ef1" stroke="#599ef1"></path><path d="M0 140L20 199L107 187Z" fill="#8ab7f5" stroke="#8ab7f5"></path><path d="M0 388L21 397L35 315Z" fill="#599ef1" stroke="#599ef1"></path><path d="M96 0L154 35L150 19Z" fill="#3877c0" stroke="#3877c0"></path><path d="M25 427L121 399L96 368Z" fill="#3d7fcc" stroke="#3d7fcc"></path><path d="M102 540L95 540L202 547Z" fill="#4a98f0" stroke="#4a98f0"></path><path d="M19 71L47 87L31 41Z" fill="#4a98f0" stroke="#4a98f0"></path><path d="M52 86L47 87L100 105Z" fill="#4690e4" stroke="#4690e4"></path><path d="M550 -29L96 0L153 0Z" fill="#3877c0" stroke="#3877c0"></path><path d="M153 0L96 0L150 19Z" fill="#8ab7f5" stroke="#8ab7f5"></path><path d="M830 549L858 540L839 540Z" fill="#4a98f0" stroke="#4a98f0"></path><path d="M839 540L858 540L848 528Z" fill="#346fb4" stroke="#346fb4"></path><path d="M848 528L858 540L843 508Z" fill="#67a4f2" stroke="#67a4f2"></path><path d="M960 340L938 347L960 447Z" fill="#7fb1f4" stroke="#7fb1f4"></path><path d="M900 378L938 347L869 272Z" fill="#73abf3" stroke="#73abf3"></path><path d="M1 301L35 315L31 274Z" fill="#4690e4" stroke="#4690e4"></path><path d="M35 315L21 397L96 368Z" fill="#4a98f0" stroke="#4a98f0"></path><path d="M550 -29L89 0L96 0Z" fill="#3877c0" stroke="#3877c0"></path><path d="M96 0L63 16L100 105Z" fill="#7fb1f4" stroke="#7fb1f4"></path><path d="M-2 264L1 301L31 274Z" fill="#73abf3" stroke="#73abf3"></path><path d="M885 0L787 56L866 89Z" fill="#3877c0" stroke="#3877c0"></path><path d="M771 0L839 -32L707 0Z" fill="#67a4f2" stroke="#67a4f2"></path><path d="M885 0L866 89L869 89Z" fill="#3d7fcc" stroke="#3d7fcc"></path><path d="M0 241L31 274L0 229Z" fill="#599ef1" stroke="#599ef1"></path><path d="M0 241L0 252L31 274Z" fill="#3877c0" stroke="#3877c0"></path><path d="M0 229L31 274L20 199Z" fill="#4a98f0" stroke="#4a98f0"></path><path d="M21 397L25 427L96 368Z" fill="#4a98f0" stroke="#4a98f0"></path><path d="M0 407L25 427L21 397Z" fill="#346fb4" stroke="#346fb4"></path><path d="M-2 264L0 305L1 301Z" fill="#73abf3" stroke="#73abf3"></path><path d="M1 301L0 305L35 315Z" fill="#8ab7f5" stroke="#8ab7f5"></path><path d="M-14 204L0 229L20 199Z" fill="#4690e4" stroke="#4690e4"></path><path d="M-14 204L-2 264L0 241Z" fill="#599ef1" stroke="#599ef1"></path><path d="M0 241L-2 264L0 252Z" fill="#346fb4" stroke="#346fb4"></path><path d="M0 252L-2 264L31 274Z" fill="#8ab7f5" stroke="#8ab7f5"></path><path d="M89 0L63 16L96 0Z" fill="#4690e4" stroke="#4690e4"></path><path d="M5 121L0 140L100 105Z" fill="#7fb1f4" stroke="#7fb1f4"></path><path d="M960 294L960 292L869 272Z" fill="#3d7fcc" stroke="#3d7fcc"></path><path d="M909 139L960 125L908 133Z" fill="#67a4f2" stroke="#67a4f2"></path><path d="M938 347L960 294L869 272Z" fill="#599ef1" stroke="#599ef1"></path><path d="M960 340L960 294L938 347Z" fill="#4a98f0" stroke="#4a98f0"></path><path d="M960 292L960 249L869 272Z" fill="#7fb1f4" stroke="#7fb1f4"></path><path d="M900 0L885 0L869 89Z" fill="#3d7fcc" stroke="#3d7fcc"></path><path d="M960 249L960 225L869 272Z" fill="#67a4f2" stroke="#67a4f2"></path><path d="M-14 204L0 388L0 305Z" fill="#4690e4" stroke="#4690e4"></path><path d="M0 305L0 388L35 315Z" fill="#7fb1f4" stroke="#7fb1f4"></path><path d="M31 491L60 540L95 540Z" fill="#7fb1f4" stroke="#7fb1f4"></path><path d="M960 447L938 347L900 378Z" fill="#7fb1f4" stroke="#7fb1f4"></path><path d="M900 0L869 89L960 108Z" fill="#4187d8" stroke="#4187d8"></path><path d="M0 229L-14 204L0 241Z" fill="#3877c0" stroke="#3877c0"></path><path d="M5 121L100 105L47 87Z" fill="#8ab7f5" stroke="#8ab7f5"></path><path d="M4 97L5 121L47 87Z" fill="#599ef1" stroke="#599ef1"></path><path d="M0 140L-14 204L20 199Z" fill="#3877c0" stroke="#3877c0"></path><path d="M-2 264L-14 204L0 305Z" fill="#73abf3" stroke="#73abf3"></path><path d="M-14 204L0 407L0 388Z" fill="#346fb4" stroke="#346fb4"></path><path d="M0 388L0 407L21 397Z" fill="#4a98f0" stroke="#4a98f0"></path><path d="M31 491L131 421L25 427Z" fill="#7fb1f4" stroke="#7fb1f4"></path><path d="M95 540L60 540L202 547Z" fill="#4a98f0" stroke="#4a98f0"></path><path d="M6 465L31 491L25 427Z" fill="#3877c0" stroke="#3877c0"></path><path d="M31 41L47 87L52 86Z" fill="#4187d8" stroke="#4187d8"></path><path d="M63 16L31 41L52 86Z" fill="#3877c0" stroke="#3877c0"></path><path d="M0 56L4 97L19 71Z" fill="#67a4f2" stroke="#67a4f2"></path><path d="M19 71L4 97L47 87Z" fill="#8ab7f5" stroke="#8ab7f5"></path><path d="M5 121L4 97L0 140Z" fill="#4690e4" stroke="#4690e4"></path><path d="M0 140L0 56L-14 204Z" fill="#3877c0" stroke="#3877c0"></path><path d="M0 407L0 443L25 427Z" fill="#8ab7f5" stroke="#8ab7f5"></path><path d="M31 491L0 534L60 540Z" fill="#4187d8" stroke="#4187d8"></path><path d="M-14 204L0 443L0 407Z" fill="#3d7fcc" stroke="#3d7fcc"></path><path d="M960 108L869 89L908 133Z" fill="#67a4f2" stroke="#67a4f2"></path><path d="M885 0L884 -29L839 -32Z" fill="#8ab7f5" stroke="#8ab7f5"></path><path d="M0 443L6 465L25 427Z" fill="#4187d8" stroke="#4187d8"></path><path d="M991 157L960 125L909 139Z" fill="#73abf3" stroke="#73abf3"></path><path d="M900 0L884 -29L885 0Z" fill="#3d7fcc" stroke="#3d7fcc"></path><path d="M960 125L960 122L908 133Z" fill="#599ef1" stroke="#599ef1"></path><path d="M-14 204L0 459L0 443Z" fill="#8ab7f5" stroke="#8ab7f5"></path><path d="M0 443L0 459L6 465Z" fill="#4a98f0" stroke="#4a98f0"></path><path d="M6 465L0 534L31 491Z" fill="#4690e4" stroke="#4690e4"></path><path d="M960 122L960 108L908 133Z" fill="#3d7fcc" stroke="#3d7fcc"></path><path d="M900 0L970 -12L884 -29Z" fill="#4187d8" stroke="#4187d8"></path><path d="M960 498L960 447L843 508Z" fill="#3d7fcc" stroke="#3d7fcc"></path><path d="M1 10L0 56L31 41Z" fill="#599ef1" stroke="#599ef1"></path><path d="M31 41L0 56L19 71Z" fill="#3d7fcc" stroke="#3d7fcc"></path><path d="M4 97L0 56L0 140Z" fill="#3877c0" stroke="#3877c0"></path><path d="M960 125L999 126L960 122Z" fill="#599ef1" stroke="#599ef1"></path><path d="M960 122L999 126L960 108Z" fill="#4690e4" stroke="#4690e4"></path><path d="M960 108L960 6L900 0Z" fill="#3d7fcc" stroke="#3d7fcc"></path><path d="M960 225L991 157L893 179Z" fill="#4690e4" stroke="#4690e4"></path><path d="M960 249L991 157L960 225Z" fill="#7fb1f4" stroke="#7fb1f4"></path><path d="M1005 347L991 157L960 249Z" fill="#3877c0" stroke="#3877c0"></path><path d="M1005 347L960 249L960 292Z" fill="#3877c0" stroke="#3877c0"></path><path d="M1005 347L960 292L960 294Z" fill="#4187d8" stroke="#4187d8"></path><path d="M1005 347L960 294L960 340Z" fill="#4a98f0" stroke="#4a98f0"></path><path d="M858 540L960 498L843 508Z" fill="#4690e4" stroke="#4690e4"></path><path d="M960 447L1005 347L960 340Z" fill="#4690e4" stroke="#4690e4"></path><path d="M971 476L1005 347L960 447Z" fill="#73abf3" stroke="#73abf3"></path><path d="M960 498L971 476L960 447Z" fill="#3d7fcc" stroke="#3d7fcc"></path><path d="M0 0L1 10L63 16Z" fill="#73abf3" stroke="#73abf3"></path><path d="M63 16L1 10L31 41Z" fill="#346fb4" stroke="#346fb4"></path><path d="M0 56L0 0L-14 204Z" fill="#346fb4" stroke="#346fb4"></path><path d="M-14 204L0 534L0 459Z" fill="#599ef1" stroke="#599ef1"></path><path d="M0 459L0 534L6 465Z" fill="#346fb4" stroke="#346fb4"></path><path d="M1005 347L999 126L991 157Z" fill="#4187d8" stroke="#4187d8"></path><path d="M991 157L999 126L960 125Z" fill="#4a98f0" stroke="#4a98f0"></path><path d="M-14 204L0 540L0 534Z" fill="#599ef1" stroke="#599ef1"></path><path d="M0 534L0 540L60 540Z" fill="#7fb1f4" stroke="#7fb1f4"></path><path d="M60 540L0 540L202 547Z" fill="#3d7fcc" stroke="#3d7fcc"></path><path d="M202 547L0 540L682 566Z" fill="#3877c0" stroke="#3877c0"></path><path d="M550 -29L0 0L89 0Z" fill="#346fb4" stroke="#346fb4"></path><path d="M89 0L0 0L63 16Z" fill="#3d7fcc" stroke="#3d7fcc"></path><path d="M1 10L0 0L0 56Z" fill="#599ef1" stroke="#599ef1"></path><path d="M1008 0L960 6L960 108Z" fill="#4187d8" stroke="#4187d8"></path><path d="M830 549L960 540L858 540Z" fill="#3877c0" stroke="#3877c0"></path><path d="M858 540L960 540L960 498Z" fill="#346fb4" stroke="#346fb4"></path><path d="M960 498L960 540L971 476Z" fill="#4690e4" stroke="#4690e4"></path><path d="M971 476L960 540L1005 347Z" fill="#3d7fcc" stroke="#3d7fcc"></path><path d="M682 566L960 540L830 549Z" fill="#4187d8" stroke="#4187d8"></path><path d="M970 -12L960 0L960 6Z" fill="#67a4f2" stroke="#67a4f2"></path><path d="M960 6L960 0L900 0Z" fill="#4187d8" stroke="#4187d8"></path><path d="M1008 0L970 -12L960 6Z" fill="#4a98f0" stroke="#4a98f0"></path><path d="M960 0L970 -12L900 0Z" fill="#599ef1" stroke="#599ef1"></path><path d="M1005 347L1008 0L999 126Z" fill="#4a98f0" stroke="#4a98f0"></path><path d="M999 126L1008 0L960 108Z" fill="#4187d8" stroke="#4187d8"></path></g></svg>