<svg id="visual" viewBox="0 0 960 540" width="960" height="540" xmlns="http://www.w3.org/2000/svg" xmlns:xlink="http://www.w3.org/1999/xlink" version="1.1"><defs><linearGradient id="grad1_0" x1="43.8%" y1="0%" x2="100%" y2="100%"><stop offset="14.444444444444446%" stop-color="#4bccef" stop-opacity="1"></stop><stop offset="85.55555555555554%" stop-color="#4bccef" stop-opacity="1"></stop></linearGradient></defs><defs><linearGradient id="grad1_1" x1="43.8%" y1="0%" x2="100%" y2="100%"><stop offset="14.444444444444446%" stop-color="#4bccef" stop-opacity="1"></stop><stop offset="85.55555555555554%" stop-color="#0098b9" stop-opacity="1"></stop></linearGradient></defs><defs><linearGradient id="grad1_2" x1="43.8%" y1="0%" x2="100%" y2="100%"><stop offset="14.444444444444446%" stop-color="#006786" stop-opacity="1"></stop><stop offset="85.55555555555554%" stop-color="#0098b9" stop-opacity="1"></stop></linearGradient></defs><defs><linearGradient id="grad1_3" x1="43.8%" y1="0%" x2="100%" y2="100%"><stop offset="14.444444444444446%" stop-color="#006786" stop-opacity="1"></stop><stop offset="85.55555555555554%" stop-color="#003956" stop-opacity="1"></stop></linearGradient></defs><defs><linearGradient id="grad1_4" x1="43.8%" y1="0%" x2="100%" y2="100%"><stop offset="14.444444444444446%" stop-color="#000000" stop-opacity="1"></stop><stop offset="85.55555555555554%" stop-color="#003956" stop-opacity="1"></stop></linearGradient></defs><defs><linearGradient id="grad2_0" x1="0%" y1="0%" x2="56.3%" y2="100%"><stop offset="14.444444444444446%" stop-color="#4bccef" stop-opacity="1"></stop><stop offset="85.55555555555554%" stop-color="#4bccef" stop-opacity="1"></stop></linearGradient></defs><defs><linearGradient id="grad2_1" x1="0%" y1="0%" x2="56.3%" y2="100%"><stop offset="14.444444444444446%" stop-color="#0098b9" stop-opacity="1"></stop><stop offset="85.55555555555554%" stop-color="#4bccef" stop-opacity="1"></stop></linearGradient></defs><defs><linearGradient id="grad2_2" x1="0%" y1="0%" x2="56.3%" y2="100%"><stop offset="14.444444444444446%" stop-color="#0098b9" stop-opacity="1"></stop><stop offset="85.55555555555554%" stop-color="#006786" stop-opacity="1"></stop></linearGradient></defs><defs><linearGradient id="grad2_3" x1="0%" y1="0%" x2="56.3%" y2="100%"><stop offset="14.444444444444446%" stop-color="#003956" stop-opacity="1"></stop><stop offset="85.55555555555554%" stop-color="#006786" stop-opacity="1"></stop></linearGradient></defs><defs><linearGradient id="grad2_4" x1="0%" y1="0%" x2="56.3%" y2="100%"><stop offset="14.444444444444446%" stop-color="#003956" stop-opacity="1"></stop><stop offset="85.55555555555554%" stop-color="#000000" stop-opacity="1"></stop></linearGradient></defs><g transform="translate(960, 0)"><path d="M0 324C-35.7 323.3 -71.5 322.7 -100.1 308.1C-128.7 293.6 -150.3 265.3 -178.1 245.1C-205.9 225 -240.1 213.1 -260.5 189.3C-280.9 165.4 -287.5 129.6 -295.8 96.1C-304.1 62.6 -314 31.3 -324 0L0 0Z" fill="#002540"></path><path d="M0 259.2C-28.6 258.7 -57.2 258.1 -80.1 246.5C-103 234.9 -120.2 212.2 -142.5 196.1C-164.8 180 -192.1 170.5 -208.4 151.4C-224.7 132.3 -230 103.7 -236.6 76.9C-243.3 50.1 -251.2 25 -259.2 0L0 0Z" fill="#004f6e"></path><path d="M0 194.4C-21.4 194 -42.9 193.6 -60.1 184.9C-77.2 176.2 -90.2 159.2 -106.9 147.1C-123.6 135 -144.1 127.9 -156.3 113.6C-168.5 99.3 -172.5 77.8 -177.5 57.7C-182.4 37.5 -188.4 18.8 -194.4 0L0 0Z" fill="#007f9f"></path><path d="M0 129.6C-14.3 129.3 -28.6 129.1 -40 123.3C-51.5 117.5 -60.1 106.1 -71.2 98.1C-82.4 90 -96 85.2 -104.2 75.7C-112.4 66.2 -115 51.9 -118.3 38.4C-121.6 25 -125.6 12.5 -129.6 0L0 0Z" fill="#1eb2d4"></path><path d="M0 64.8C-7.1 64.7 -14.3 64.5 -20 61.6C-25.7 58.7 -30.1 53.1 -35.6 49C-41.2 45 -48 42.6 -52.1 37.9C-56.2 33.1 -57.5 25.9 -59.2 19.2C-60.8 12.5 -62.8 6.3 -64.8 0L0 0Z" fill="#4bccef"></path></g><g transform="translate(0, 540)"><path d="M0 -324C34.8 -319.1 69.6 -314.2 97 -298.6C124.5 -283 144.5 -256.8 174 -239.5C203.4 -222.2 242.2 -213.9 262.1 -190.4C282 -167 282.9 -128.5 290.1 -94.3C297.2 -60 310.6 -30 324 0L0 0Z" fill="#002540"></path><path d="M0 -259.2C27.8 -255.3 55.7 -251.4 77.6 -238.9C99.6 -226.4 115.6 -205.4 139.2 -191.6C162.7 -177.7 193.8 -171.1 209.7 -152.4C225.6 -133.6 226.3 -102.8 232.1 -75.4C237.8 -48 248.5 -24 259.2 0L0 0Z" fill="#004f6e"></path><path d="M0 -194.4C20.9 -191.5 41.8 -188.5 58.2 -179.2C74.7 -169.8 86.7 -154.1 104.4 -143.7C122.1 -133.3 145.3 -128.3 157.3 -114.3C169.2 -100.2 169.8 -77.1 174 -56.6C178.3 -36 186.4 -18 194.4 0L0 0Z" fill="#007f9f"></path><path d="M0 -129.6C13.9 -127.6 27.8 -125.7 38.8 -119.5C49.8 -113.2 57.8 -102.7 69.6 -95.8C81.4 -88.9 96.9 -85.5 104.8 -76.2C112.8 -66.8 113.2 -51.4 116 -37.7C118.9 -24 124.2 -12 129.6 0L0 0Z" fill="#1eb2d4"></path><path d="M0 -64.8C7 -63.8 13.9 -62.8 19.4 -59.7C24.9 -56.6 28.9 -51.4 34.8 -47.9C40.7 -44.4 48.4 -42.8 52.4 -38.1C56.4 -33.4 56.6 -25.7 58 -18.9C59.4 -12 62.1 -6 64.8 0L0 0Z" fill="#4bccef"></path></g></svg>