<svg id="visual" viewBox="0 0 960 540" width="960" height="540" xmlns="http://www.w3.org/2000/svg" xmlns:xlink="http://www.w3.org/1999/xlink" version="1.1"><path d="M0 105L26.7 98.8C53.3 92.7 106.7 80.3 160 90.8C213.3 101.3 266.7 134.7 320 135C373.3 135.3 426.7 102.7 480 82.7C533.3 62.7 586.7 55.3 640 70.3C693.3 85.3 746.7 122.7 800 134.8C853.3 147 906.7 134 933.3 127.5L960 121L960 0L933.3 0C906.7 0 853.3 0 800 0C746.7 0 693.3 0 640 0C586.7 0 533.3 0 480 0C426.7 0 373.3 0 320 0C266.7 0 213.3 0 160 0C106.7 0 53.3 0 26.7 0L0 0Z" fill="#ffffff77" stroke-linecap="round" stroke-linejoin="miter"></path></svg>