<svg id="visual" viewBox="0 0 960 540" width="960" height="540" xmlns="http://www.w3.org/2000/svg" xmlns:xlink="http://www.w3.org/1999/xlink" version="1.1"><path d="M0 309L14.5 299.3C29 289.7 58 270.3 87.2 266.5C116.3 262.7 145.7 274.3 174.8 265C204 255.7 233 225.3 262 223.3C291 221.3 320 247.7 349 262.8C378 278 407 282 436.2 285.2C465.3 288.3 494.7 290.7 523.8 281.5C553 272.3 582 251.7 611 247.5C640 243.3 669 255.7 698 262.5C727 269.3 756 270.7 785.2 266.8C814.3 263 843.7 254 872.8 248.2C902 242.3 931 239.7 945.5 238.3L960 237L960 0L945.5 0C931 0 902 0 872.8 0C843.7 0 814.3 0 785.2 0C756 0 727 0 698 0C669 0 640 0 611 0C582 0 553 0 523.8 0C494.7 0 465.3 0 436.2 0C407 0 378 0 349 0C320 0 291 0 262 0C233 0 204 0 174.8 0C145.7 0 116.3 0 87.2 0C58 0 29 0 14.5 0L0 0Z" fill="#006c8c"></path><path d="M0 232L14.5 223.3C29 214.7 58 197.3 87.2 195.8C116.3 194.3 145.7 208.7 174.8 214.7C204 220.7 233 218.3 262 204.5C291 190.7 320 165.3 349 160C378 154.7 407 169.3 436.2 188.5C465.3 207.7 494.7 231.3 523.8 235C553 238.7 582 222.3 611 214.7C640 207 669 208 698 211.3C727 214.7 756 220.3 785.2 213.8C814.3 207.3 843.7 188.7 872.8 191.3C902 194 931 218 945.5 230L960 242L960 0L945.5 0C931 0 902 0 872.8 0C843.7 0 814.3 0 785.2 0C756 0 727 0 698 0C669 0 640 0 611 0C582 0 553 0 523.8 0C494.7 0 465.3 0 436.2 0C407 0 378 0 349 0C320 0 291 0 262 0C233 0 204 0 174.8 0C145.7 0 116.3 0 87.2 0C58 0 29 0 14.5 0L0 0Z" fill="#1f8bad"></path><path d="M0 120L14.5 123.2C29 126.3 58 132.7 87.2 142.3C116.3 152 145.7 165 174.8 162.8C204 160.7 233 143.3 262 143.5C291 143.7 320 161.3 349 164.8C378 168.3 407 157.7 436.2 154.2C465.3 150.7 494.7 154.3 523.8 146.8C553 139.3 582 120.7 611 114.8C640 109 669 116 698 127C727 138 756 153 785.2 152.3C814.3 151.7 843.7 135.3 872.8 138.7C902 142 931 165 945.5 176.5L960 188L960 0L945.5 0C931 0 902 0 872.8 0C843.7 0 814.3 0 785.2 0C756 0 727 0 698 0C669 0 640 0 611 0C582 0 553 0 523.8 0C494.7 0 465.3 0 436.2 0C407 0 378 0 349 0C320 0 291 0 262 0C233 0 204 0 174.8 0C145.7 0 116.3 0 87.2 0C58 0 29 0 14.5 0L0 0Z" fill="#36abce"></path><path d="M0 115L14.5 109.2C29 103.3 58 91.7 87.2 83.7C116.3 75.7 145.7 71.3 174.8 70.3C204 69.3 233 71.7 262 70.2C291 68.7 320 63.3 349 68.7C378 74 407 90 436.2 100C465.3 110 494.7 114 523.8 108C553 102 582 86 611 85C640 84 669 98 698 96.7C727 95.3 756 78.7 785.2 76.2C814.3 73.7 843.7 85.3 872.8 91.2C902 97 931 97 945.5 97L960 97L960 0L945.5 0C931 0 902 0 872.8 0C843.7 0 814.3 0 785.2 0C756 0 727 0 698 0C669 0 640 0 611 0C582 0 553 0 523.8 0C494.7 0 465.3 0 436.2 0C407 0 378 0 349 0C320 0 291 0 262 0C233 0 204 0 174.8 0C145.7 0 116.3 0 87.2 0C58 0 29 0 14.5 0L0 0Z" fill="#4bccef"></path></svg>